<svg xmlns="http://www.w3.org/2000/svg" height="24" viewBox="0 -960 960 960" width="24"><path d="M280-120v-150.461q-57-52-88.5-116.885T160-520.556q0-133.102 93.333-226.273Q346.667-840 480-840q108.077 0 195.346 65.807 87.27 65.808 113.193 169.962l41.473 164.169q3.988 15.216-5.704 27.639T798.462-400H720v135.385q0 26.654-18.981 45.634Q682.039-200 655.385-200H560v80h-40v-120h135.385q10.769 0 17.692-6.923T680-264.615V-440h108l-38-155q-23-91.769-98.769-148.385Q575.462-800 480-800q-116 0-198 81.224t-82 197.545q0 59.803 24.5 113.625 24.5 53.823 69.5 95.685L320-288v168h-40Zm214-340Zm-36.308 83.077h44.616l2.923-36.923q15.692-3 29.884-10.462 14.193-7.461 23.808-19.384l32.154 16.154 22.308-38.001-29.231-21.538q6.615-16.462 6.615-32.923 0-16.461-6.615-32.923l29.231-21.538-22.308-38.001-32.154 16.154q-9.615-11.923-23.808-19.384-14.192-7.462-29.884-10.462l-2.923-36.923h-44.616l-2.923 36.923q-15.692 3-29.884 10.462-14.193 7.461-23.808 19.384l-32.154-16.154-22.308 38.001 29.231 21.538q-6.615 16.462-6.615 32.923 0 16.461 6.615 32.923l-29.231 21.538 22.308 38.001 32.154-16.154q9.615 11.923 23.808 19.384 14.192 7.462 29.884 10.462l2.923 36.923Zm22.263-68.462q-31.109 0-52.84-21.776-21.73-21.776-21.73-52.884 0-31.109 21.776-52.84 21.776-21.73 52.884-21.73 31.109 0 52.84 21.776 21.73 21.776 21.73 52.884 0 31.109-21.776 52.84-21.776 21.73-52.884 21.73Z"/></svg>