<svg xmlns="http://www.w3.org/2000/svg" height="24" viewBox="0 -960 960 960" width="24"><path d="M184.615-240Q157-240 138.5-258.5 120-277 120-304.615v-350.77Q120-683 138.5-701.5 157-720 184.615-720h590.77Q803-720 821.5-701.5 840-683 840-655.385v350.77Q840-277 821.5-258.5 803-240 775.385-240h-590.77Zm0-40h590.77q9.23 0 16.923-7.692Q800-295.385 800-304.615v-350.77q0-9.23-7.692-16.923Q784.615-680 775.385-680h-590.77q-9.23 0-16.923 7.692Q160-664.615 160-655.385v350.77q0 9.23 7.692 16.923Q175.385-280 184.615-280Zm144.616-49.231h301.538v-61.538H329.231v61.538Zm-120-120h61.538v-61.538h-61.538v61.538Zm120 0h61.538v-61.538h-61.538v61.538Zm120 0h61.538v-61.538h-61.538v61.538Zm120 0h61.538v-61.538h-61.538v61.538Zm120 0h61.538v-61.538h-61.538v61.538Zm-480-120h61.538v-61.538h-61.538v61.538Zm120 0h61.538v-61.538h-61.538v61.538Zm120 0h61.538v-61.538h-61.538v61.538Zm120 0h61.538v-61.538h-61.538v61.538Zm120 0h61.538v-61.538h-61.538v61.538ZM160-280v-400 400Z"/></svg>