<svg xmlns="http://www.w3.org/2000/svg" height="24" viewBox="0 -960 960 960" width="24"><path d="M295.385-856.923h369.23v283.231q0 21.461-11.538 39.846-11.538 18.385-31.077 30.154l-134.308 80.923 29.539 95.077h115.077l-94.769 66.461 37.23 116.616L480-217.077l-94.769 72.462 37.23-116.616-94.769-66.461h115.077l29.539-95.077-135.847-79.385q-19.538-11-30.307-30.154-10.769-19.153-10.769-41.384v-283.231Zm40 40v243.231q0 11.538 5.769 21.153 5.769 9.616 15.769 15.77L460-476.462v-340.461H335.385Zm289.23 0H500v340.461l103.077-60.307q10-6.154 15.769-15.77 5.769-9.615 5.769-21.153v-243.231ZM480-640.846Zm-20-5.846Zm40 0Z"/></svg>